<?xml version="1.0" standalone="no"?>
<!DOCTYPE svg PUBLIC "-//W3C//DTD SVG 20010904//EN"
 "http://www.w3.org/TR/2001/REC-SVG-20010904/DTD/svg10.dtd">
<svg version="1.0" xmlns="http://www.w3.org/2000/svg"
 width="225.000000pt" height="225.000000pt" viewBox="0 0 225.000000 225.000000"
 preserveAspectRatio="xMidYMid meet">

<g transform="translate(0.000000,225.000000) scale(0.100000,-0.100000)"
fill="#000000" stroke="none">
<path d="M1008 1853 c7 -3 16 -2 19 1 4 3 -2 6 -13 5 -11 0 -14 -3 -6 -6z"/>
<path d="M958 1843 c7 -3 16 -2 19 1 4 3 -2 6 -13 5 -11 0 -14 -3 -6 -6z"/>
<path d="M1048 1830 c-49 -9 -134 -37 -154 -52 -6 -4 -14 -5 -17 -1 -4 3 -7 2
-7 -4 0 -5 -22 -20 -50 -32 -27 -12 -50 -27 -50 -33 0 -6 -7 -7 -16 -4 -8 3
-12 2 -9 -4 3 -6 2 -10 -4 -10 -6 0 -24 -13 -40 -29 -17 -16 -38 -32 -49 -35
-10 -4 -25 -17 -32 -31 -7 -14 -21 -27 -32 -31 -10 -3 -18 -13 -18 -21 0 -9
-3 -14 -6 -11 -8 9 -77 -58 -71 -69 3 -5 0 -10 -8 -10 -13 0 -13 4 1 25 8 13
13 26 10 29 -10 10 -73 -138 -91 -215 -22 -91 -17 -288 10 -371 15 -50 17 -52
30 -33 8 11 25 21 37 23 20 4 29 -7 70 -89 26 -52 44 -91 41 -88 -4 3 -18 -4
-31 -16 -14 -13 -23 -18 -19 -13 3 6 -3 11 -13 11 -23 0 -18 -9 43 -81 55 -63
128 -120 204 -159 l52 -26 7 23 c9 24 11 32 13 46 1 6 13 6 31 0 25 -9 28 -14
20 -30 -6 -10 -8 -19 -5 -19 3 0 1 -9 -5 -20 -9 -17 -5 -21 42 -36 82 -25 250
-30 343 -9 78 17 173 53 145 54 -13 1 -13 2 0 11 12 8 12 10 1 10 -11 0 -9 5
5 22 12 13 13 18 4 13 -13 -8 -13 -7 -1 8 22 27 10 28 -59 3 -107 -38 -110
-39 -110 -22 0 9 7 16 16 16 8 0 12 4 9 10 -3 5 0 7 8 4 8 -3 20 2 27 11 7 8
18 15 24 15 6 0 39 25 73 55 33 30 66 55 71 55 6 0 14 9 17 20 4 11 11 18 16
15 5 -4 9 -2 9 3 0 14 62 77 83 85 10 4 15 11 12 17 -3 5 0 10 7 10 7 0 27 23
43 51 17 27 38 60 49 72 l19 22 -8 -40 c-9 -56 -58 -155 -105 -214 -42 -53
-46 -67 -8 -29 13 13 22 27 20 32 -2 5 3 4 11 -2 10 -9 17 -7 28 6 26 33 57
97 51 111 -3 8 0 11 7 7 8 -5 8 0 1 18 -6 18 -6 26 1 26 6 0 8 4 5 8 -3 4 2
36 11 70 15 61 16 62 52 63 20 1 39 1 44 0 13 -2 7 213 -9 279 -47 202 -198
392 -390 489 -64 32 -126 50 -123 35 1 -5 0 -12 -1 -16 -4 -14 -7 -28 -9 -39
-1 -8 -18 -9 -53 -5 -107 14 -114 16 -125 47 -12 31 -16 32 -95 19z m129 -66
c34 -9 29 -60 -9 -73 -15 -5 -28 -14 -28 -18 0 -5 -16 -17 -35 -27 -19 -11
-35 -23 -35 -28 0 -4 -7 -8 -15 -8 -8 0 -15 -4 -15 -10 0 -5 -21 -22 -47 -37
-27 -15 -51 -31 -54 -36 -4 -5 -13 -6 -20 -2 -8 6 -11 4 -7 -7 4 -8 2 -21 -3
-29 -7 -11 -9 -11 -9 4 0 19 -15 23 -26 5 -5 -7 -3 -8 6 -3 8 5 11 3 8 -6 -3
-8 -14 -13 -25 -11 -17 2 -20 -2 -17 -25 2 -24 1 -26 -9 -12 -7 9 -23 19 -37
23 -23 6 -23 5 -4 -5 11 -6 29 -24 39 -41 10 -17 13 -28 6 -24 -7 4 -18 3 -25
-3 -10 -8 -17 -7 -26 4 -7 8 -20 15 -29 15 -14 0 -14 -2 -1 -11 12 -9 12 -10
-4 -5 -13 5 -17 2 -13 -8 4 -10 1 -13 -8 -10 -18 7 -8 32 17 40 12 3 27 -1 39
-12 23 -21 25 -8 2 18 -34 38 -100 6 -109 -54 -12 -74 38 -123 97 -93 16 9 29
22 29 30 0 15 25 21 33 8 8 -15 -12 -52 -34 -64 -13 -6 -40 -12 -62 -12 -55 0
-87 34 -97 104 -5 38 -8 44 -9 22 -1 -20 -6 -33 -14 -33 -8 0 -22 -9 -31 -19
-39 -43 -92 -25 -79 27 10 44 59 138 98 192 72 99 219 194 343 224 59 15 181
20 219 10z m-236 -291 c13 -16 12 -17 -3 -4 -10 7 -18 15 -18 17 0 8 8 3 21
-13z m-37 -9 c13 -5 16 -24 16 -100 l0 -94 54 0 c43 0 55 -4 58 -18 4 -16 -2
-17 -66 -14 -39 3 -72 5 -72 6 -3 2 -10 226 -8 226 1 0 9 -3 18 -6z m192 -2
c12 -7 26 -232 15 -232 -22 1 -29 27 -34 128 -5 110 -4 119 19 104z m213 -6
c15 -8 32 -26 39 -40 10 -23 9 -26 -8 -26 -11 0 -20 4 -20 9 0 17 -31 41 -54
41 -12 0 -33 -12 -47 -26 -47 -50 -21 -154 40 -154 23 0 61 28 61 46 0 16 2
16 23 8 18 -7 11 -37 -14 -60 -22 -20 -85 -22 -118 -5 -25 14 -51 67 -51 104
0 89 75 141 149 103z m121 -49 l0 -51 53 52 c35 35 61 52 77 52 23 0 21 -4
-24 -44 l-49 -44 52 -66 c50 -62 51 -66 29 -66 -19 0 -34 14 -63 55 -36 53
-39 55 -57 38 -15 -13 -17 -25 -12 -59 6 -40 5 -42 -15 -37 -20 5 -21 12 -21
119 0 97 2 113 15 108 11 -4 15 -21 15 -57z m-710 -413 l0 -44 55 0 55 0 0 49
c0 44 2 49 20 44 19 -5 20 -14 20 -118 0 -108 -1 -113 -20 -108 -17 4 -20 14
-20 54 l0 49 -50 0 -50 0 0 -50 c0 -43 -3 -50 -19 -50 -18 0 -20 9 -23 108 -4
120 -3 123 17 115 10 -3 15 -20 15 -49z m331 46 c28 0 39 -4 39 -15 0 -12 -14
-15 -65 -15 -36 0 -65 -3 -65 -7 0 -5 -3 -18 -6 -30 -6 -22 -4 -23 60 -23 59
0 66 -2 66 -20 0 -18 -7 -20 -60 -20 -45 0 -60 -4 -60 -14 0 -8 -3 -21 -6 -30
-5 -14 4 -16 65 -16 61 0 71 -2 71 -17 0 -16 -9 -18 -85 -15 l-85 3 0 116 0
116 46 -7 c26 -3 64 -6 85 -6z m252 -22 c28 -33 21 -74 -15 -94 -16 -8 -13
-15 22 -62 l40 -52 -28 6 c-15 4 -27 7 -27 8 -9 25 -65 88 -82 92 -32 8 -36 3
-35 -51 1 -38 -2 -45 -18 -45 -18 0 -20 7 -20 84 0 46 -3 98 -6 115 l-6 31 78
-6 c62 -5 83 -11 97 -26z m190 22 c35 0 47 -4 47 -15 0 -12 -14 -15 -64 -15
-49 0 -65 -4 -70 -16 -14 -37 -7 -43 56 -46 52 -2 63 -6 66 -22 4 -17 -2 -18
-56 -14 -55 4 -61 2 -66 -16 -12 -44 -9 -46 64 -46 65 0 70 -2 70 -21 0 -19
-4 -21 -37 -15 -21 3 -59 6 -85 6 l-48 0 0 116 0 117 38 -7 c20 -3 58 -6 85
-6z"/>
<path d="M748 1473 c7 -3 16 -2 19 1 4 3 -2 6 -13 5 -11 0 -14 -3 -6 -6z"/>
<path d="M655 1419 c-4 -6 -5 -12 -2 -15 2 -3 7 2 10 11 7 17 1 20 -8 4z"/>
<path d="M1208 1012 c-36 -3 -38 -5 -38 -39 l0 -36 48 7 c48 6 75 27 66 51 -7
16 -28 21 -76 17z"/>
<path d="M654 1698 l-19 -23 23 19 c21 18 27 26 19 26 -2 0 -12 -10 -23 -22z"/>
<path d="M549 1593 c-13 -16 -12 -17 4 -4 9 7 17 15 17 17 0 8 -8 3 -21 -13z"/>
<path d="M523 1558 c-15 -20 -25 -38 -20 -38 3 0 12 11 21 25 17 26 16 35 -1
13z"/>
</g>
</svg>
