<?xml version="1.0" standalone="no"?>
<!DOCTYPE svg PUBLIC "-//W3C//DTD SVG 20010904//EN"
 "http://www.w3.org/TR/2001/REC-SVG-20010904/DTD/svg10.dtd">
<svg version="1.0" xmlns="http://www.w3.org/2000/svg"
 width="216.000000pt" height="233.000000pt" viewBox="0 0 216.000000 233.000000"
 preserveAspectRatio="xMidYMid meet">

<g transform="translate(0.000000,233.000000) scale(0.100000,-0.100000)"
fill="#000000" stroke="none">
<path d="M365 1889 c-4 -5 -4 -21 -1 -35 5 -20 3 -24 -14 -24 -28 0 -90 -33
-117 -62 -12 -13 -29 -40 -38 -61 l-15 -37 205 0 c136 0 205 4 205 10 0 48
-92 137 -149 146 -35 6 -38 9 -29 24 6 9 8 25 5 34 -7 18 -42 22 -52 5z"/>
<path d="M1135 1878 c-74 -66 -32 -188 66 -188 52 0 97 39 105 91 6 38 8 39
45 39 22 0 39 5 39 10 0 6 -19 10 -41 10 -32 0 -49 7 -76 30 -43 38 -99 41
-138 8z"/>
<path d="M983 1698 c-16 -17 -28 -65 -52 -194 -17 -95 -31 -185 -31 -202 0
-35 22 -61 53 -64 12 -1 -54 -5 -148 -8 -162 -5 -170 -6 -170 -25 0 -19 8 -20
188 -23 187 -2 193 -1 188 31 -2 10 12 9 84 -9 36 -9 69 -21 74 -28 5 -6 28
-60 51 -121 48 -125 62 -145 100 -145 34 0 50 17 50 52 0 32 -96 285 -117 310
-9 9 -39 22 -68 29 -81 18 -80 16 -65 103 7 42 15 76 18 76 3 0 16 -10 29 -22
l24 -22 132 22 c73 13 136 27 141 32 6 6 18 10 28 10 13 0 18 -8 18 -30 0 -17
7 -72 15 -123 28 -179 65 -430 65 -449 0 -17 -13 -18 -222 -17 -123 1 -234 4
-248 7 -20 6 -38 33 -89 139 l-65 132 -175 5 c-97 3 -192 6 -211 7 -32 1 -40
8 -74 60 -25 39 -45 59 -58 59 -19 0 -19 -1 3 -37 12 -21 31 -53 42 -71 12
-20 16 -37 10 -43 -5 -5 -30 23 -63 71 -33 50 -60 80 -71 80 -15 0 -8 -18 37
-96 51 -87 55 -98 45 -126 -6 -17 -11 -55 -11 -84 l0 -54 192 0 192 0 61 -65
c39 -42 72 -68 95 -75 21 -6 237 -10 552 -10 436 0 518 2 518 14 0 8 -9 43
-20 79 -32 102 -101 147 -229 147 l-38 0 -77 195 c-42 108 -76 200 -76 205 0
5 11 12 25 16 24 6 25 10 25 75 l0 69 -75 0 c-61 0 -75 -3 -75 -16 0 -12 -8
-14 -42 -9 -26 3 -84 -2 -145 -13 l-102 -19 -30 31 c-24 24 -31 41 -31 70 0
50 -13 72 -51 85 -53 18 -103 14 -126 -11z"/>
<path d="M133 1635 c-22 -15 -23 -22 -23 -154 0 -93 4 -141 12 -149 9 -9 82
-12 265 -12 l253 0 16 25 c13 19 15 47 12 149 -2 85 -7 129 -16 138 -10 10
-73 14 -255 16 -208 2 -245 1 -264 -13z"/>
<path d="M482 893 c-34 -65 -19 -159 34 -221 120 -141 354 -55 357 130 1 45
-3 54 -31 79 -21 18 -43 29 -62 29 l-31 0 23 -31 c43 -58 21 -151 -43 -185
-63 -32 -148 -3 -175 61 -20 49 -18 77 11 119 l24 36 -49 0 c-37 0 -52 -4 -58
-17z"/>
<path d="M632 854 c-45 -31 -19 -104 37 -104 55 0 80 61 41 100 -24 24 -48 25
-78 4z"/>
<path d="M1602 728 c25 -70 114 -128 197 -128 65 0 145 51 177 112 21 40 18
48 -22 48 -27 0 -43 -8 -68 -34 -57 -61 -132 -61 -185 -1 -25 29 -37 35 -70
35 l-40 0 11 -32z"/>
<path d="M1773 753 c9 -2 25 -2 35 0 9 3 1 5 -18 5 -19 0 -27 -2 -17 -5z"/>
<path d="M0 85 l0 -85 1080 0 1080 0 0 85 0 85 -1080 0 -1080 0 0 -85z m218
13 c14 5 15 4 2 -10 -9 -10 -17 -12 -21 -6 -4 6 -9 5 -12 -3 -3 -8 -6 -3 -6
11 -1 18 2 21 10 13 6 -6 19 -9 27 -5z m79 5 c-18 -5 -18 -5 0 -18 14 -11 16
-16 6 -26 -11 -11 -15 -10 -25 0 -9 10 -9 12 -1 7 6 -3 14 -2 17 3 3 5 -1 11
-9 15 -23 8 -18 26 8 25 18 -1 18 -2 4 -6z m30 -30 c-3 -10 -5 -4 -5 12 0 17
2 24 5 18 2 -7 2 -21 0 -30z m112 21 c4 3 7 -3 7 -13 0 -10 -6 -18 -13 -18 -8
0 -13 11 -12 26 0 14 3 20 6 13 2 -6 8 -10 12 -8z m-41 -5 c-9 -6 -8 -12 3
-25 13 -16 12 -16 -8 -6 -14 8 -24 9 -28 2 -9 -15 -25 -2 -25 20 0 14 7 18 35
17 19 -1 29 -4 23 -8z m1303 -13 c5 3 9 0 9 -6 0 -15 -23 -7 -26 8 -1 7 0 8 3
2 2 -5 9 -8 14 -4z m239 -2 c0 -7 -9 -12 -19 -11 -10 0 -17 6 -14 12 5 16 33
15 33 -1z m80 1 c0 -5 5 -3 10 5 7 10 10 11 10 2 0 -18 -28 -26 -44 -13 -10 8
-16 9 -21 1 -9 -14 -25 -13 -25 3 0 7 14 12 35 12 19 0 35 -4 35 -10z m46 -12
c-10 -10 -19 5 -10 18 6 11 8 11 12 0 2 -7 1 -15 -2 -18z m32 2 c-3 -3 -9 2
-12 12 -6 14 -5 15 5 6 7 -7 10 -15 7 -18z m-1974 -1 c3 -8 2 -12 -4 -9 -6 3
-10 10 -10 16 0 14 7 11 14 -7z m126 12 c0 -2 -8 -10 -17 -17 -16 -13 -17 -12
-4 4 13 16 21 21 21 13z m1354 -4 c3 -5 -1 -9 -9 -9 -8 0 -15 4 -15 9 0 4 4 8
9 8 6 0 12 -4 15 -8z m56 -2 c0 -5 -4 -10 -10 -10 -5 0 -10 5 -10 10 0 6 5 10
10 10 6 0 10 -4 10 -10z m90 -6 c0 -2 -7 -4 -15 -4 -8 0 -15 4 -15 10 0 5 7 7
15 4 8 -4 15 -8 15 -10z m30 6 c0 -5 -4 -10 -10 -10 -5 0 -10 5 -10 10 0 6 5
10 10 10 6 0 10 -4 10 -10z m70 0 c0 -5 -7 -10 -15 -10 -8 0 -15 5 -15 10 0 6
7 10 15 10 8 0 15 -4 15 -10z"/>
<path d="M350 74 c0 -8 5 -12 10 -9 6 3 10 10 10 16 0 5 -4 9 -10 9 -5 0 -10
-7 -10 -16z"/>
</g>
</svg>
