<?xml version="1.0" standalone="no"?>
<!DOCTYPE svg PUBLIC "-//W3C//DTD SVG 20010904//EN"
 "http://www.w3.org/TR/2001/REC-SVG-20010904/DTD/svg10.dtd">
<svg version="1.0" xmlns="http://www.w3.org/2000/svg"
 width="10%" height="10%" viewBox="0 0 900.000000 900.000000"
 preserveAspectRatio="xMidYMid meet">

<g transform="translate(0.000000,900.000000) scale(0.100000,-0.100000)"
fill="#fff" stroke="none">
<path d="M5480 7561 c-46 -14 -85 -39 -129 -83 -39 -39 -77 -96 -69 -103 2 -1
26 -10 54 -19 29 -9 69 -33 90 -52 43 -39 45 -39 -86 2 -114 35 -279 44 -366
19 -156 -44 -240 -152 -275 -350 -15 -88 -7 -207 19 -267 54 -123 167 -191
354 -213 l57 -6 72 -117 c39 -64 73 -118 74 -120 1 -2 15 19 30 45 45 77 132
180 188 222 65 48 106 64 52 20 -145 -118 -215 -254 -215 -418 1 -142 44 -252
142 -357 196 -209 531 -214 733 -10 282 286 155 754 -234 862 -63 18 -65 20
-142 117 -44 55 -79 107 -79 116 0 9 7 38 15 64 45 148 60 333 35 427 -42 159
-189 260 -320 221z"/>
<path d="M4310 6276 c-170 -49 -308 -138 -498 -320 -67 -64 -71 -71 -56 -87
14 -16 14 -18 -5 -29 -38 -20 -81 -90 -81 -130 0 -97 149 -229 226 -200 42 16
48 55 24 140 -12 41 -24 83 -27 93 -4 15 -1 18 14 13 15 -5 30 6 63 45 50 59
139 128 225 172 55 29 68 32 155 32 79 0 103 -4 142 -23 68 -34 140 -102 196
-187 114 -170 131 -359 46 -526 -24 -49 -129 -214 -237 -374 -248 -369 -484
-603 -734 -729 -117 -59 -338 -100 -436 -82 l-36 7 63 81 c36 44 93 129 128
189 57 97 67 109 105 124 58 22 177 101 238 158 41 38 46 46 29 47 -11 0 -29
-9 -40 -21 -43 -48 -228 -169 -239 -157 -2 2 30 62 72 133 97 168 203 370 203
390 0 12 -13 15 -60 15 -57 0 -61 -2 -80 -32 -10 -18 -23 -37 -27 -43 -5 -5
-26 -41 -47 -80 -51 -93 -154 -251 -195 -298 -35 -39 -67 -48 -78 -21 -10 27
25 131 89 259 65 132 68 155 28 195 -30 30 -61 25 -127 -20 -68 -45 -163 -142
-146 -147 7 -3 37 16 68 41 97 80 98 64 6 -98 -89 -156 -111 -209 -111 -261 0
-49 24 -86 70 -105 39 -16 95 -1 140 36 l31 26 -12 -25 c-9 -19 -30 -32 -88
-52 -144 -51 -261 -117 -326 -183 l-30 -31 -49 30 c-49 31 -55 30 -70 -6 -2
-5 -21 6 -42 26 -48 45 -143 119 -153 119 -4 0 -7 -24 -7 -54 -2 -79 -31 -130
-159 -271 -132 -146 -157 -185 -186 -290 -25 -93 -31 -257 -11 -293 13 -22 15
-23 32 -7 10 9 23 31 30 48 68 183 149 288 265 343 67 32 78 31 70 -4 -6 -27
-1 -32 77 -84 151 -101 361 -206 503 -252 155 -49 278 -69 435 -70 138 0 167
3 265 28 150 38 264 96 467 238 416 290 486 328 609 328 97 0 256 -69 616
-266 332 -182 665 -339 827 -389 91 -29 116 -28 116 5 0 29 10 25 69 -25 30
-25 66 -52 82 -60 l28 -15 0 55 c0 76 40 147 152 265 167 176 211 273 213 466
1 81 -3 115 -13 128 -13 15 -15 15 -31 1 -10 -9 -27 -42 -39 -73 -53 -148
-147 -265 -251 -315 -74 -35 -96 -38 -93 -12 2 18 -11 24 -100 47 -266 68
-457 161 -712 348 -318 232 -534 328 -721 318 -79 -4 -82 -3 -73 15 20 36 85
93 133 115 172 81 414 41 771 -126 226 -106 372 -143 540 -136 198 8 414 104
558 248 117 117 197 344 214 604 l6 102 368 0 c388 0 406 2 429 46 36 67 -3
131 -86 140 -50 6 -51 7 -68 54 -64 179 -251 381 -431 466 -82 39 -233 84
-281 84 -39 0 -47 10 -36 42 12 32 -4 84 -30 103 -36 24 -95 19 -125 -11 -23
-23 -25 -31 -20 -79 l5 -52 -49 -6 c-71 -9 -238 -68 -304 -108 -155 -93 -271
-220 -348 -381 -48 -98 -54 -108 -80 -108 -39 0 -94 -25 -106 -48 -20 -38 -13
-82 18 -113 l29 -29 421 0 c330 0 421 -3 421 -12 0 -7 -15 -47 -33 -88 -174
-398 -506 -428 -959 -84 -87 66 -299 252 -478 420 -283 265 -418 383 -562 490
-121 90 -206 138 -323 183 -82 32 -100 35 -215 37 -82 2 -140 -1 -170 -10z
m2810 -193 c0 -5 -33 -18 -72 -31 -217 -69 -411 -267 -483 -492 -10 -30 -21
-59 -25 -65 -5 -5 -36 -8 -70 -7 l-61 4 6 31 c29 139 147 317 269 406 110 81
197 119 332 145 82 17 104 18 104 9z m-3800 -1765 c-55 -97 -127 -208 -136
-208 -15 0 -165 63 -170 72 -9 14 60 82 133 129 61 40 214 112 221 104 2 -2
-20 -46 -48 -97z"/>
<path d="M1265 5655 c-133 -29 -240 -89 -340 -190 -64 -66 -135 -173 -155
-239 -18 -55 -9 -146 18 -183 45 -64 161 -91 264 -63 95 27 192 131 222 241
20 69 21 169 2 214 -18 42 -45 57 -107 57 -127 -1 -241 -133 -256 -297 -3 -36
-2 -65 2 -65 20 0 165 105 165 119 0 24 48 123 72 149 25 26 41 28 58 7 17
-21 0 -128 -32 -192 -71 -147 -253 -238 -336 -168 -92 77 -58 219 87 366 84
84 173 147 260 180 102 41 273 29 396 -26 96 -43 96 -39 0 -138 -106 -110
-208 -263 -322 -482 -95 -181 -145 -265 -199 -332 l-34 -42 -54 19 c-209 71
-398 64 -435 -17 -17 -37 -13 -59 14 -92 39 -46 110 -65 235 -65 89 1 118 5
193 30 l87 30 70 -23 c139 -47 280 -39 403 23 177 89 351 311 396 504 52 219
0 391 -152 501 l-39 28 55 35 c64 41 75 54 52 62 -8 4 -44 -8 -79 -26 l-63
-33 -63 43 c-112 76 -238 98 -385 65z m501 -267 c74 -144 72 -382 -5 -561 -31
-72 -105 -182 -157 -232 -25 -24 -75 -59 -111 -77 -58 -28 -77 -32 -142 -32
-53 0 -91 6 -124 20 l-48 20 54 37 c69 48 176 158 211 219 45 77 90 192 145
373 29 94 68 203 88 244 40 84 40 84 89 -11z m-988 -798 c34 -6 94 -22 134
-37 l71 -26 -23 -19 c-102 -83 -397 -49 -373 43 3 10 6 19 7 19 0 0 19 7 41
15 49 17 63 18 143 5z"/>
<path d="M3125 5637 c-57 -19 -82 -34 -153 -89 -78 -63 -200 -207 -305 -363
-173 -259 -306 -610 -267 -706 25 -60 85 -76 146 -38 64 39 227 230 210 246
-3 3 -42 -28 -85 -70 -43 -42 -84 -77 -90 -77 -25 0 -35 48 -22 107 26 116 45
145 154 236 117 97 292 272 368 367 146 183 220 342 176 378 -21 18 -89 22
-132 9z m92 -63 c16 -41 -56 -170 -176 -314 -122 -146 -363 -380 -392 -380
-15 0 91 201 171 323 122 189 231 318 310 371 31 21 79 21 87 0z"/>
<path d="M3555 5644 c-148 -35 -335 -222 -525 -526 -124 -199 -230 -470 -230
-590 0 -35 6 -54 26 -77 39 -47 84 -43 155 13 51 40 189 199 189 218 0 23 -32
0 -96 -67 -39 -41 -78 -75 -86 -75 -8 0 -20 12 -27 26 -9 22 -8 40 9 101 11
41 27 87 35 103 8 15 70 75 137 133 154 131 282 264 386 402 124 165 169 272
134 314 -17 20 -71 33 -107 25z m70 -75 c15 -45 -75 -189 -226 -364 -130 -150
-330 -338 -345 -323 -9 10 97 206 184 338 143 218 252 339 332 368 31 12 47 6
55 -19z"/>
<path d="M2152 5015 c-139 -65 -306 -296 -319 -443 -9 -99 26 -144 115 -145
63 -1 119 29 192 104 54 54 160 200 160 218 0 5 25 11 56 15 61 7 94 20 94 38
0 7 -17 9 -49 6 -68 -7 -75 -1 -56 51 23 67 20 127 -10 156 -33 34 -110 34
-183 0z m161 -98 c-2 -68 -22 -102 -58 -100 -31 2 -85 51 -85 77 0 22 41 67
74 82 48 20 71 -1 69 -59z m-84 -133 c17 -4 31 -10 31 -14 0 -19 -101 -157
-129 -178 -68 -50 -121 -52 -121 -4 0 29 63 177 100 236 l22 36 32 -35 c19
-19 47 -38 65 -41z"/>
</g>
</svg>
