<?xml version="1.0" standalone="no"?>
<!DOCTYPE svg PUBLIC "-//W3C//DTD SVG 20010904//EN"
 "http://www.w3.org/TR/2001/REC-SVG-20010904/DTD/svg10.dtd">
<svg version="1.0" xmlns="http://www.w3.org/2000/svg"
 width="220.000000pt" height="230.000000pt" viewBox="0 0 220.000000 230.000000"
 preserveAspectRatio="xMidYMid meet">

<g transform="translate(0.000000,230.000000) scale(0.100000,-0.100000)"
fill="#000000" stroke="none">
<path d="M938 2185 c-362 -61 -665 -319 -784 -668 -198 -580 181 -1203 791
-1302 476 -78 944 206 1101 668 179 525 -117 1103 -651 1270 -149 47 -305 58
-457 32z m266 -510 c155 -75 194 -279 78 -407 -117 -130 -319 -109 -409 41
-60 100 -51 213 24 300 54 64 121 93 203 88 37 -1 82 -11 104 -22z m46 -566
c145 -23 257 -138 268 -276 5 -63 -9 -85 -73 -114 -36 -17 -70 -19 -344 -19
-329 0 -362 4 -413 52 -28 26 -30 32 -25 78 17 143 130 259 271 280 78 11 243
11 316 -1z"/>
</g>
</svg>
