<?xml version="1.0" standalone="no"?>
<!DOCTYPE svg PUBLIC "-//W3C//DTD SVG 20010904//EN"
 "http://www.w3.org/TR/2001/REC-SVG-20010904/DTD/svg10.dtd">
<svg version="1.0" xmlns="http://www.w3.org/2000/svg"
 width="225.000000pt" height="225.000000pt" viewBox="0 0 225.000000 225.000000"
 preserveAspectRatio="xMidYMid meet">

<g transform="translate(0.000000,225.000000) scale(0.100000,-0.100000)"
fill="#000000" stroke="none">
<path d="M340 1784 c-78 -34 -120 -101 -120 -192 0 -119 77 -203 194 -210 80
-5 106 7 106 51 1 47 31 106 80 154 40 40 42 43 31 74 -39 113 -178 172 -291
123z"/>
<path d="M1030 1780 c-48 -25 -89 -71 -104 -115 -13 -37 -13 -37 35 -85 27
-27 51 -60 55 -74 6 -24 9 -25 48 -19 51 9 71 9 122 0 39 -6 42 -5 48 19 4 14
28 47 55 74 48 48 48 48 35 85 -15 45 -57 90 -106 116 -49 25 -140 25 -188 -1z"/>
<path d="M1722 1779 c-47 -24 -86 -68 -103 -118 -11 -31 -9 -34 31 -74 49 -48
79 -107 80 -154 0 -44 26 -56 106 -51 50 3 72 10 106 33 106 76 120 245 26
332 -59 55 -170 70 -246 32z"/>
<path d="M690 1594 c-92 -40 -144 -144 -120 -243 22 -92 106 -161 198 -163 78
-2 89 6 96 64 10 71 28 109 76 162 47 51 47 66 -2 122 -62 70 -165 94 -248 58z"/>
<path d="M1385 1593 c-42 -22 -92 -71 -106 -104 -11 -27 -9 -32 31 -75 48 -53
66 -91 76 -162 7 -58 18 -66 96 -64 185 4 273 242 136 369 -55 51 -170 69
-233 36z"/>
<path d="M1056 1436 c-61 -23 -89 -47 -118 -106 -35 -67 -36 -118 -4 -186 76
-164 306 -164 382 0 13 28 24 69 24 91 0 42 -29 117 -58 148 -48 53 -157 78
-226 53z"/>
<path d="M369 1337 c-137 -38 -249 -207 -278 -421 -18 -130 -35 -117 150 -114
l162 3 22 66 c12 36 35 90 51 119 29 55 111 147 149 168 19 11 19 13 -13 38
-18 14 -47 50 -63 80 -17 29 -38 55 -47 58 -45 13 -91 14 -133 3z"/>
<path d="M1795 1345 c-5 -2 -22 -6 -37 -9 -18 -4 -35 -21 -56 -60 -17 -29 -46
-66 -64 -80 -32 -25 -32 -27 -13 -38 38 -21 120 -113 149 -168 16 -29 39 -83
51 -119 l22 -66 162 -3 c185 -3 168 -16 150 114 -26 188 -129 362 -243 409
-34 14 -105 26 -121 20z"/>
<path d="M682 1135 c-18 -8 -57 -37 -86 -65 -88 -83 -147 -224 -162 -388 l-7
-72 160 0 160 0 12 54 c26 118 119 267 197 315 l39 25 -47 44 c-26 24 -50 52
-53 62 -12 38 -146 54 -213 25z"/>
<path d="M1388 1139 c-15 -6 -30 -19 -33 -29 -3 -10 -27 -38 -53 -62 l-47 -44
39 -25 c78 -48 171 -197 197 -315 l12 -54 160 0 160 0 -7 72 c-15 164 -74 305
-162 388 -29 28 -69 57 -89 65 -39 17 -136 19 -177 4z"/>
<path d="M1046 976 c-83 -31 -167 -125 -212 -236 -28 -71 -54 -190 -54 -251
l0 -39 346 0 347 0 -6 73 c-17 195 -104 363 -223 433 -54 32 -142 41 -198 20z"/>
</g>
</svg>
