<?xml version="1.0" standalone="no"?>
<!DOCTYPE svg PUBLIC "-//W3C//DTD SVG 20010904//EN"
 "http://www.w3.org/TR/2001/REC-SVG-20010904/DTD/svg10.dtd">
<svg version="1.0" xmlns="http://www.w3.org/2000/svg"
 width="216.000000pt" height="233.000000pt" viewBox="0 0 216.000000 233.000000"
 preserveAspectRatio="xMidYMid meet">

<g transform="translate(0.000000,233.000000) scale(0.100000,-0.100000)"
fill="#000000" stroke="none">
<path d="M980 2116 c-81 -19 -105 -31 -154 -76 -68 -63 -89 -122 -94 -264 -4
-99 -7 -121 -23 -137 -41 -41 -14 -180 51 -261 17 -21 38 -58 46 -81 20 -59
81 -136 134 -169 62 -38 142 -54 197 -39 92 25 183 111 219 208 10 26 31 64
46 84 63 79 90 226 49 263 -16 15 -20 35 -23 139 -3 108 -7 128 -30 172 -55
105 -151 162 -284 170 -48 3 -101 -1 -134 -9z"/>
<path d="M757 1099 c-9 -5 -55 -25 -101 -44 -196 -79 -268 -129 -335 -234 -61
-94 -96 -250 -71 -310 19 -46 66 -60 324 -96 273 -38 594 -47 815 -25 187 20
435 61 478 80 52 23 60 48 46 147 -20 137 -99 270 -203 337 -59 39 -337 163
-344 155 -2 -2 -11 -40 -21 -84 -26 -122 -80 -278 -121 -353 -42 -76 -132
-202 -144 -202 -12 0 -61 65 -110 145 -60 98 -115 240 -147 378 -15 64 -32
117 -37 117 -6 0 -19 -5 -29 -11z"/>
<path d="M998 985 c-5 -5 -1 -34 17 -112 5 -21 11 -23 64 -23 l59 0 11 50 c20
92 22 90 -67 90 -43 0 -81 -2 -84 -5z"/>
<path d="M1007 758 l-16 -63 42 -77 c23 -43 44 -78 47 -78 3 0 23 35 46 78
l41 77 -14 63 -14 62 -58 0 -59 0 -15 -62z"/>
<path d="M0 85 l0 -85 1080 0 1080 0 0 85 0 85 -1080 0 -1080 0 0 -85z m218
13 c14 5 15 4 2 -10 -9 -10 -17 -12 -21 -6 -4 6 -9 5 -12 -3 -3 -8 -4 -4 -4 8
1 14 5 19 10 14 5 -5 17 -7 25 -3z m78 3 c-18 -7 -18 -8 -3 -14 9 -3 17 -11
17 -16 0 -14 -29 -21 -36 -9 -4 6 -3 8 4 4 6 -3 13 -2 16 3 3 5 -1 11 -9 15
-23 8 -18 26 8 25 20 0 20 -1 3 -8z m31 -28 c-3 -10 -5 -4 -5 12 0 17 2 24 5
18 2 -7 2 -21 0 -30z m112 21 c4 3 7 -3 7 -13 0 -10 -6 -18 -13 -18 -8 0 -13
11 -12 26 0 14 3 20 6 13 2 -6 8 -10 12 -8z m-41 -5 c-9 -6 -8 -12 3 -25 13
-16 12 -16 -8 -6 -14 8 -24 9 -28 2 -9 -15 -25 -2 -25 20 0 14 7 18 35 17 19
-1 29 -4 23 -8z m1387 -8 c3 -5 1 -12 -5 -16 -5 -3 -10 1 -10 9 0 18 6 21 15
7z m176 0 c7 11 9 10 9 -3 0 -10 -7 -16 -19 -15 -12 1 -17 6 -13 16 4 12 7 12
10 2 4 -11 6 -11 13 0z m49 -13 c0 -13 -23 -5 -28 10 -2 7 2 10 12 6 9 -3 16
-11 16 -16z m-1886 -4 c3 -8 2 -12 -4 -9 -6 3 -10 10 -10 16 0 14 7 11 14 -7z
m126 12 c0 -2 -8 -10 -17 -17 -16 -13 -17 -12 -4 4 13 16 21 21 21 13z m1364
-4 c3 -5 -1 -9 -9 -9 -8 0 -15 4 -15 9 0 4 4 8 9 8 6 0 12 -4 15 -8z m106 -2
c0 -5 -5 -10 -11 -10 -5 0 -7 5 -4 10 3 6 8 10 11 10 2 0 4 -4 4 -10z m35 0
c3 -5 1 -10 -4 -10 -6 0 -11 5 -11 10 0 6 2 10 4 10 3 0 8 -4 11 -10z m95 0
c0 -5 -4 -10 -10 -10 -5 0 -10 5 -10 10 0 6 5 10 10 10 6 0 10 -4 10 -10z m40
0 c0 -5 -4 -10 -10 -10 -5 0 -10 5 -10 10 0 6 5 10 10 10 6 0 10 -4 10 -10z"/>
<path d="M350 74 c0 -8 5 -12 10 -9 6 3 10 10 10 16 0 5 -4 9 -10 9 -5 0 -10
-7 -10 -16z"/>
</g>
</svg>
